<?xml version="1.0" encoding="UTF-8"?>
<svg width="507px" height="514px" viewBox="0 0 507 514" version="1.1" xmlns="http://www.w3.org/2000/svg" xmlns:xlink="http://www.w3.org/1999/xlink">
    <!-- Generator: Sketch 60 (88103) - https://sketch.com -->
    <title>santiago</title>
    <desc>Created with Sketch.</desc>
    <g id="Page-1" stroke="none" stroke-width="1" fill="none" fill-rule="evenodd">
        <g id="A0" transform="translate(-1586.000000, -695.000000)">
            <g id="santiago" transform="translate(1586.000000, 695.000000)">
                <path d="M59.61585,381.26808 L33.586763,356.07864 L46.601308,345.16321 L33.166939,335.50726 L37.785004,320.3936 C38.764593,305.8397 32.827545,280.21918 40.723772,276.7319 L75.56917,267.49577 L57.51673,261.61823 L89.00353,241.04686 L81.4621,227.42184 L81.4467,222.5746 L114.19297,229.29178 L113.77315,234.7495 L120.4848,229.08464 L120.69194,231.81626 L133.50488,236.00897 L130.89343,250.28852 L122.78553,250.48459 L122.58946,269.17506 C121.0501,268.82132 119.51075,271.42004 117.97139,276.31207 L112.09385,291.42574 L133.50488,291.42574 L140.22206,296.88345 L80.60705,385.46632 L59.61585,381.26808 Z" id="Maipú" stroke="#000000" stroke-width="0.2" fill="#C0BDBD"></path>
                <path d="M133.50488,236.00897 L130.89343,250.28852 L122.78553,250.48459 L122.58946,269.17506 C121.0501,268.82132 119.51075,271.42004 117.97139,276.31207 L112.09385,291.42574 L133.50488,291.42574 L140.22206,296.88345 L129.40293,313.00142 L154.89472,324.32463 L155.36076,311.05733 L179.76448,245.34476 L179.3235,240.52093 L146.09575,249.05866 L133.50488,236.00897 Z" id="Cerrillos" stroke="#000000" stroke-width="0.2" fill="#C0BDBD"></path>
                <path d="M121.54401,209.1701 L122.25065,229.19784 L120.40412,229.06594 L120.66791,232.09954 L133.46176,236.0564 L145.99183,249.11405 L179.75706,240.40895 L195.32072,240.67274 L194.92503,231.96764 L186.74752,232.49523 C188.50275,227.42574 187.71475,212.18333 188.19836,202.02738 L186.21993,201.4998 L186.21993,192.26712 L170.39248,193.05849 L170.39248,198.07052 L152.44815,199.15313 L153.37142,212.60646 C145.74022,215.79492 143.81238,214.50813 140.84791,214.02987 L121.54401,209.1701 Z" id="Estación-Central" stroke="#000000" stroke-width="0.2" fill="#C0BDBD"></path>
                <path d="M50.443493,68.363211 L71.0299,87.9535 L77.33864,95.25836 L87.96388,103.22729 L56.42019,136.09913 L55.75611,153.69719 L59.74058,154.36127 L60.07262,156.3535 L62.39689,160.00593 L65.38524,163.65835 L69.36971,166.6467 L75.01436,167.97486 L76.34252,164.65447 L78.66679,167.97486 L84.31145,169.96709 L93.2765,170.29913 L97.593,172.29136 L106.22601,172.6234 L109.21436,172.29136 L108.88232,195.86612 L111.47702,196.38985 L111.40854,206.87476 L121.70461,209.25007 L122.26282,229.21032 L120.55162,229.13694 L113.67458,234.94563 L114.11736,229.45479 L80.65902,222.42922 L79.66291,215.45641 C78.21118,209.04905 71.38655,212.7905 66.71339,212.46806 C67.77467,218.36016 62.74266,220.33514 58.41242,222.76126 C55.76315,217.87395 47.029331,218.46274 40.814368,216.78456 L39.818251,221.4331 C32.576157,222.10192 26.848031,216.78724 24.212427,219.10883 C22.365649,217.57577 23.298881,213.8187 17.90369,215.12437 C14.158274,215.22968 12.107888,216.49474 15.911457,221.76514 C12.361575,229.04485 8.374953,225.8428 4.440173,223.88494 L0.414437,214.34211 L3.475947,207.08227 L7.942526,203.50301 C5.124928,202.83074 3.222913,200.90996 4.772212,194.28283 C6.729585,191.29811 10.380528,189.47772 6.295463,182.33882 L11.831319,178.32246 L10.930875,172.6234 L26.868738,166.97874 L26.728044,163.92661 L31.644844,165.85506 L35.501747,161.00204 L33.841553,151.37292 L37.49398,151.70496 C38.828678,131.15763 30.91987,102.23665 35.169708,87.9535 L51.771648,86.62535 L50.443493,68.363211 Z" id="Pudahuel" stroke="#000000" stroke-width="0.2" fill="#C0BDBD"></path>
                <path d="M109.07427,181.50985 L108.85814,195.87871 L111.43615,196.46841 L111.35742,207.01813 L140.48723,213.9463 C146.66355,215.97079 150.62772,213.70475 153.39883,212.60791 L152.46374,199.14599 L151.90297,183.47809 L133.32288,181.58858 L132.77177,185.21013 L123.63918,181.03748 L109.07427,181.50985 Z" id="Lo-Prado" stroke="#000000" stroke-width="0.2" fill="#C0BDBD"></path>
                <polygon id="Cerro-Navia" stroke="#000000" stroke-width="0.2" fill="#C0BDBD" points="55.75611 153.69719 55.90466 148.60805 68.71817 148.71394 69.14176 150.30239 73.80121 150.40829 81.00219 146.8078 92.33314 146.7019 122.30192 146.7019 125.47882 147.97267 130.13828 145.00756 132.99749 145.00756 139.2454 149.77291 132.6798 185.24832 123.59799 181.12889 109.08716 181.59633 109.21436 172.29136 106.22601 172.6234 97.593 172.29136 93.2765 170.29913 84.31145 169.96709 78.66679 167.97486 76.34252 164.65447 75.01436 167.97486 69.36971 166.6467 65.38524 163.65835 62.39689 160.00593 60.07262 156.3535 59.74058 154.36127"></polygon>
                <path d="M185.21641,243.67364 L197.51071,244.11273 L197.51071,240.16099 L194.87622,240.16099 L234.83268,241.03916 L255.68907,231.37935 L240.54075,177.81134 L195.3707,165.37524 L195.75438,168.37108 C191.65751,168.27689 184.72052,162.33911 184.33825,170.12741 L185.43596,184.39757 L170.28763,185.27574 L170.39248,193.05849 L186.21993,192.26712 L186.21993,201.4998 L188.19836,202.02738 C187.71475,212.18333 188.50275,227.42574 186.74752,232.49523 L194.92503,231.96764 L195.07807,240.67274 L185.46513,240.62849" id="Santiago" stroke="#000000" stroke-width="0.2" fill="#C0BDBD"></path>
                <polygon id="Renca" stroke="#000000" stroke-width="0.2" fill="#C0BDBD" points="92.13682 106.12066 87.96388 103.22729 56.42019 136.09913 55.90466 148.60805 68.71817 148.71394 69.14176 150.30239 73.80121 150.40829 81.00219 146.8078 92.33314 146.7019 122.30192 146.7019 125.47882 147.97267 130.13828 145.00756 132.99749 145.00756 133.01072 142.54628 136.45185 142.71414 143.08232 139.02122 154.83252 139.02122 164.23268 146.07134 170.61136 152.70181 178.92043 157.9894 195.3707 165.37524 195.45463 163.19306 186.1384 153.20539 184.29194 134.40507 182.44548 130.54429 171.11494 110.06537 166.58272 98.39911 164.98805 101.08487 163.7291 101.08487 163.22552 99.07055 157.09863 102.09203 153.23785 102.17596 144.92878 113.00292 141.73944 113.08685 139.22154 111.8279 133.01072 116.19226 127.89099 116.19226 127.72313 114.93331 124.53379 114.76545 124.27036 116.09913 121.34445 115.94047 121.09266 115.26903 118.23904 115.1851 117.5676 116.19226 114.71398 116.0244 113.79076 117.45121 109.25854 112.33148 107.07636 112.24755 105.98527 110.9886 104.97811 112.33148 98.17978 112.33148 95.24223 109.22607 95.1583 106.20459"></polygon>
                <path d="M195.75438,168.37108 L195.3707,165.37524 L178.92043,157.9894 L170.61136,152.70181 L164.23268,146.07134 L154.83252,139.02122 L143.08232,139.02122 L136.45185,142.71414 L133.01072,142.54628 L132.99749,145.00756 L139.2454,149.77291 L133.32288,181.58858 L151.90297,183.47809 L152.46374,199.14599 L170.39248,198.07052 L170.39248,193.05849 L170.28763,185.27574 L185.43596,184.39757 L184.33825,170.12741 C184.72052,162.33911 191.65751,168.27689 195.75438,168.37108 Z" id="Quinta-Normal" stroke="#000000" stroke-width="0.2" fill="#C0BDBD"></path>
                <polygon id="Recoleta" stroke="#000000" stroke-width="0.2" fill="#C0BDBD" points="240.54075 177.81134 220.63955 172.30357 222.44017 151.67826 218.34785 151.51457 218.51154 134.8179 215.56507 134.8179 212.4549 132.5262 212.78229 127.12433 210.81798 124.99633 212.32395 124.18557 212.16218 97.494 211.51512 97.33224 211.51512 93.44983 212.32395 93.28806 212.80925 90.37625 236.16682 101.50301 272.21359 129.87933 272.11412 135.42511 262.83195 141.5007 261.31305 145.38234 253.04349 153.98944 249.49939 153.98944 244.43639 157.7023 243.42379 164.45297 239.54215 171.8787 240.72352 171.8787"></polygon>
                <polygon id="Independencia" stroke="#000000" stroke-width="0.2" fill="#C0BDBD" points="192.15699 126.46956 182.44548 130.54429 184.29194 134.40507 186.1384 153.20539 195.45463 163.19306 195.3707 165.37524 220.63955 172.30357 222.44017 151.67826 218.34785 151.51457 218.51154 134.8179 215.56507 134.8179 212.4549 132.5262 212.78229 127.12433 210.81798 124.99633 199.68687 124.66894"></polygon>
                <path d="M74.02798,85.43048 L71.0299,87.9535 L77.33864,95.25836 L92.13682,106.12066 L95.1583,106.20459 L95.24223,109.22607 L98.17978,112.33148 L104.97811,112.33148 L105.98527,110.9886 L107.07636,112.24755 L109.25854,112.33148 L113.79076,117.45121 L114.71398,116.0244 L117.5676,116.19226 L118.23904,115.1851 L121.09266,115.26903 L121.34445,115.94047 L124.27036,116.09913 L124.53379,114.76545 L127.72313,114.93331 L127.89099,116.19226 L133.01072,116.19226 L139.22154,111.8279 L141.73944,113.08685 L144.92878,113.00292 L153.23785,102.17596 L157.09863,102.09203 L163.22552,99.07055 L163.7291,101.08487 L164.98805,101.08487 L166.58272,98.39911 L158.325,77.385529 L158.325,74.820475 L172.54939,74.703882 L167.1861,59.546741 L167.1861,53.367292 L169.05159,52.084765 L168.935,48.703557 L171.61664,47.887403 C177.23388,32.193372 177.78761,40.308874 182.34324,35.06213 C182.58552,33.106863 182.17075,31.62091 180.24456,31.214549 L180.24456,25.618066 L180.24456,19.788397 L175.23104,19.788397 L173.24895,15.707628 C173.06703,13.951284 174.08053,14.286921 175.11445,14.658288 L175.9306,17.573123 C175.42169,14.702132 178.82785,10.288841 168.8184,11.160486 C166.52309,9.15196 166.94888,5.588516 160.77346,5.797191 L157.85863,7.546091 L153.77786,7.196311 L148.53115,2.765763 L140.01984,2.998949 L138.03775,13.725541 L112.03742,20.721144 L133.84039,49.16993 L131.39193,49.16993 L131.50852,52.084765 L120.78193,52.084765 L120.89852,47.421029 L114.01951,47.421029 L114.13611,56.39872 L112.62039,56.165533 C111.21425,55.396053 112.81235,56.82968 107.2571,53.017512 L107.49028,48.936743 C104.8937,46.17636 101.17383,47.534745 97.69644,48.003996 C99.71804,49.442795 101.98961,51.194047 102.82655,51.152018 L96.18072,51.035424 C96.05819,52.128968 95.12577,52.772569 92.21655,52.317952 L87.55281,65.026631 L82.5393,65.026631 L82.18952,75.636629 L74.02798,84.26454 L74.02798,85.43048 Z" id="Quilicura" stroke="#000000" stroke-width="0.2" fill="#C0BDBD"></path>
                <polygon id="Conchalí" stroke="#000000" stroke-width="0.2" fill="#C0BDBD" points="210.81798 124.99633 212.32395 124.18557 212.16218 97.494 211.51512 97.33224 211.51512 93.44983 212.32395 93.28806 212.80925 90.37625 179.64701 75.817215 172.54939 74.703882 158.325 74.820475 158.325 77.385529 166.58272 98.39911 171.11494 110.06537 182.44548 130.54429 192.15699 126.46956 199.68687 124.66894"></polygon>
                <polygon id="San-Bernardo" stroke="#000000" stroke-width="0.2" fill="#C0BDBD" points="155.00449 323.91395 181.04899 335.23765 171.99003 360.90469 168.21547 359.39486 168.21547 372.60584 161.42125 386.57173 195.01488 400.91507 209.73568 403.93472 194.63742 465.46013 200.29927 472.25434 199.54435 473.38671 201.43164 475.65145 196.5247 477.16128 207.8484 498.67629 207.09348 508.49016 203.31892 508.49016 201.80909 500.18612 198.03453 500.56358 197.27961 497.16647 172.36749 499.43121 170.85766 494.90173 168.97038 495.27919 170.48021 502.45086 175.38714 505.47051 178.40679 505.47051 179.1617 506.98034 184.06864 507.35779 183.31373 508.86762 167.46055 513.3971 162.17616 513.01964 148.58773 505.47051 152.73975 495.65664 148.21028 471.87689 144.81317 471.12197 140.66115 459.04337 142.92588 453.38152 138.77386 452.62661 136.13167 454.51389 129.71491 453.38152 130.84728 446.96476 135.75421 433.37633 133.48947 429.97922 130.09237 429.97922 128.96 425.44974 128.20508 422.43009 124.80797 420.16535 127.82763 412.61622 122.16578 407.33183 123.67561 400.16016 125.94034 397.51796 125.18543 392.61103 130.84728 386.94918 132.73456 360.90469 140.66115 347.31625 147.45536 351.46828"></polygon>
                <polygon id="El-Bosque" stroke="#000000" stroke-width="0.2" fill="#C0BDBD" points="181.04899 335.23765 204.24958 344.85961 221.59986 347.57712 209.73568 403.93472 195.01488 400.91507 161.42125 386.57173 168.21547 372.60584 168.21547 359.39486 171.99003 360.90469"></polygon>
                <polygon id="La-Cisterna" stroke="#000000" stroke-width="0.2" fill="#C0BDBD" points="221.59986 347.57712 204.24958 344.85961 181.04899 335.23765 198.39647 291.34548 232.45432 300.93726"></polygon>
                <polygon id="Lo-Espejo" stroke="#000000" stroke-width="0.2" fill="#C0BDBD" points="155.36076 311.05733 155.00449 323.91395 181.04899 335.23765 198.39647 291.34548 167.56262 278.20104"></polygon>
                <polygon id="Pedro-Aguirre-Cerda" stroke="#000000" stroke-width="0.2" fill="#C0BDBD" points="197.51071 240.16099 218.01795 240.67965 198.39647 291.34548 167.56262 278.20104 179.76448 245.34476 179.3235 240.52093 185.46513 240.62849 185.21641 243.67364 197.51071 244.11273"></polygon>
                <polygon id="San-Miguel" stroke="#000000" stroke-width="0.2" fill="#C0BDBD" points="198.39647 291.34548 218.01795 240.67965 234.81241 241.03854 241.60692 301.90388 236.09655 301.97611"></polygon>
                <polygon id="San-Ramón" stroke="#000000" stroke-width="0.2" fill="#C0BDBD" points="241.60692 301.90388 236.09655 301.97611 232.45432 300.93726 221.59986 347.57712 219.37745 358.13154 249.78528 361.78112"></polygon>
                <polygon id="La-Granja" stroke="#000000" stroke-width="0.2" fill="#C0BDBD" points="241.60692 301.90388 249.77442 361.80283 254.51736 362.36807 272.72536 357.77188 269.3666 343.80652 274.6699 343.80652 273.07891 293.60194 266.3614 293.60194 253.29431 301.14622"></polygon>
                <polygon id="San-Joaquín" stroke="#000000" stroke-width="0.2" fill="#C0BDBD" points="241.60692 301.90388 234.83268 241.03916 255.68907 231.37935 258.00003 237.7807 260.77318 250.77984 265.45287 262.56573 269.78592 286.83078 272.90571 289.95058 273.07891 293.60194 266.3614 293.60194 253.29431 301.14622"></polygon>
                <polygon id="La-Pintana" stroke="#000000" stroke-width="0.2" fill="#C0BDBD" points="272.72536 357.77188 254.51736 362.36807 219.3877 358.13763 209.73677 403.9327 201.60509 437.08776 234.02359 440.063 231.51512 457.82571 234.56596 457.82571 233.54901 466.09689 254.70156 466.09689 257.07444 454.16469 257.07444 432.26639 281.888 427.52062 281.00664 419.85961 280.39647 405.01215 277.00664 400.40198 275.58291 380.063 274.29478 380.063 272.26088 366.97825 275.44732 366.97825"></polygon>
                <polygon id="Providencia" stroke="#000000" stroke-width="0.2" fill="#C0BDBD" points="268.78441 137.70333 262.83195 141.5007 261.31305 145.38234 253.04349 153.98944 249.49939 153.98944 244.43639 157.7023 243.42379 164.45297 239.54215 171.8787 240.72352 171.8787 240.54075 177.81134 246.93327 200.38425 262.78179 195.34959 263.13229 197.27731 265.93625 197.45256 274.87388 192.72087 288.71844 191.49414 295.02736 195.87533 307.88784 174.11766 304.84122 170.81492 282.93527 151.18718 275.39962 148.38322 279.07982 137.86836"></polygon>
                <polygon id="Ñuñoa" stroke="#000000" stroke-width="0.2" fill="#C0BDBD" points="246.93327 200.38425 262.78179 195.34959 263.13229 197.27731 265.93625 197.45256 274.87388 192.72087 288.71844 191.49414 295.02736 195.87533 307.8474 174.11766 318.6049 180.9658 322.32555 200.37785 320.86964 212.51038 315.85486 228.20178 304.53117 235.15776 279.13374 234.996 257.94226 237.74604 255.69306 231.37498"></polygon>
                <polygon id="La-Reina" stroke="#000000" stroke-width="0.2" fill="#C0BDBD" points="307.8474 174.11766 318.6049 180.9658 322.32555 200.37785 320.86964 212.51038 332.14712 217.28636 351.3974 217.94113 362.39756 217.41731 372.35008 221.08403 374.70726 211.91723 428.26756 215.19109 428.52947 211.78628 425.25561 205.63143 420.4103 202.09566 418.96981 200.13135 415.43404 196.98844 415.69595 190.44073 400.3743 176.95244 389.63605 174.59526 381.12402 170.53568 363.18328 173.02381 362.52851 166.738 337.38529 170.01186 304.77767 170.66663"></polygon>
                <polygon id="Macul" stroke="#000000" stroke-width="0.2" fill="#C0BDBD" points="269.78592 286.83078 265.45287 262.56573 260.77318 250.77984 257.94226 237.74604 279.13374 234.996 304.53117 235.15776 315.85486 228.20178 310.97104 258.30586 300.26168 279.3375 300.26168 288.24047"></polygon>
                <path d="M389.04442,448.98865 C385.52946,449.80251 382.61798,448.29948 379.59155,446.7932 C374.67205,442.23828 371.638,450.52749 367.90799,452.41411 C362.9927,451.1882 357.84287,448.15465 352.47107,449.71728 C348.55199,452.68232 344.36013,456.87621 338.83984,454.29196 C334.78645,450.40234 329.81237,456.61757 330.10287,460.81522 C326.21452,461.36905 320.99192,459.94333 318.18669,464.5513 C313.48337,478.86652 314.63193,474.07291 308.59984,473.42405 C303.98019,474.23688 303.11942,483.50901 296.96434,481.33809 C295.74472,476.44731 293.26624,480.33795 290.04947,480.80846 C284.95647,479.21959 281.20053,484.75952 275.85664,482.82589 C271.22374,484.93302 266.54288,485.2832 261.7652,482.92978 C256.61491,481.42049 249.42806,482.06171 247.66929,488.13723 L254.06142,478.33472 L254.70156,466.09689 L257.07444,454.16469 L257.07444,432.26639 L281.888,427.52062 L281.00664,419.85961 L280.39647,405.01215 L277.00664,400.40198 L275.58291,380.063 L288.63526,375.44955 L297.4741,379.33864 L308.7878,377.92442 L308.43425,371.56046 L343.08248,364.84295 L329.64745,344.6904 L348.73934,345.04396 L355.81041,351.76147 L360.76015,346.45817 L362.52792,350.70081 L367.83122,349.99371 L372.42741,348.22594 L374.54873,348.57949 L374.90229,372.62112 L364.64924,368.73203 L362.52792,386.05615 L359.69949,385.7026 L359.34594,401.25895 L364.64924,407.97646 L366.06345,416.8153 L375.6094,421.41149 L380.20559,415.40108 L418.38936,413.27976 L418.0358,419.29017 C416.90032,419.29017 413.39357,419.9052 414.50027,422.1186 C415.18572,423.48949 415.36508,424.66976 414.85382,426.71479 C414.4117,428.48329 414.23879,430.90218 412.37895,432.01809 C410.50759,433.14091 409.8614,433.55666 407.78275,432.7252 C406.50168,432.21277 404.83603,430.7235 404.24722,433.07875 C403.65079,435.46448 404.95433,435.42797 404.95433,438.0285 C404.95433,440.8248 403.35027,440.55565 402.83301,442.62469 C402.43325,444.2237 401.00453,445.80667 398.94392,445.80667 C397.32239,445.80667 395.0389,445.74293 394.70128,444.39246 C394.62578,444.09048 394.05788,439.87972 393.64062,439.79627 C392.66029,439.6002 388.88341,439.47424 390.10508,441.91759 C390.75243,443.21228 391.15416,444.7692 390.10508,446.86733 C389.75153,447.57444 389.39797,448.28154 389.04442,448.98865 Z" id="Puente-Alto" stroke="#000000" stroke-width="0.2" fill="#C0BDBD"></path>
                <polygon id="La-Florida" stroke="#000000" stroke-width="0.2" fill="#C0BDBD" points="269.78592 286.83078 272.90571 289.95058 273.07891 293.60194 274.6699 343.80652 269.3666 343.80652 272.72536 357.77188 275.44732 366.97825 272.26088 366.97825 274.29478 380.063 275.58291 380.063 288.63526 375.44955 297.4741 379.33864 308.7878 377.92442 308.43425 371.56046 343.08248 364.84295 329.64745 344.6904 348.73934 345.04396 355.81041 351.76147 360.55384 346.71254 366.08121 341.99405 362.98049 333.23114 355.44655 327.5009 355.97017 325.54675 364.059 325.54675 363.51975 315.03126 387.51663 317.18829 387.11219 307.34687 373.49598 306.26836 373.22635 291.57364 377.13596 286.85515 371.06933 286.85515 367.69898 290.2255 363.11531 291.70845 337.63547 291.1692 300.32572 288.23699"></polygon>
                <polygon id="Peñalolén" stroke="#000000" stroke-width="0.2" fill="#C0BDBD" points="428.26756 215.19109 374.70726 211.91723 372.35008 221.08403 362.39756 217.41731 351.3974 217.94113 332.14712 217.28636 320.86964 212.51038 315.85486 228.20178 310.97104 258.30586 300.26168 279.3375 300.32572 288.23699 337.63547 291.1692 363.11531 291.70845 367.69898 290.2255 371.06933 286.85515 377.13596 286.85515 379.17318 283.47412 381.58236 283.7418 393.09285 273.56974 404.06798 273.30205 408.08327 269.82213 414.77542 269.55445 414.77542 266.07453 426.82129 271.69593 434.04881 272.49899 445.02393 263.12998 453.85757 263.12998 458.14054 259.65007 462.15583 259.11469 473.13096 263.93304 480.09079 263.66536 489.4598 258.57932 495.61658 258.84701 495.34889 253.76098 493.47509 249.21031 484.37377 248.13957 481.42922 245.7304 476.87856 245.46271 470.4541 237.43213 468.04492 237.43213 465.36806 235.02296 451.44839 234.48759 445.02393 229.93693 444.48856 226.18932 438.59947 219.76486"></polygon>
                <polygon id="Las-Condes" fill="#C0BDBD" points="493.47509 249.21031 484.37377 248.13957 481.42922 245.7304 476.87856 245.46271 470.4541 237.43213 468.04492 237.43213 465.36806 235.02296 451.44839 234.48759 445.02393 229.93693 444.48856 226.18932 438.59947 219.76486 428.26756 215.19109 428.52947 211.78628 425.25561 205.63143 420.4103 202.09566 418.96981 200.13135 415.43404 196.98844 415.69595 190.44073 400.3743 176.95244 389.63605 174.59526 381.12402 170.53568 363.18328 173.02381 362.52851 166.738 337.38529 170.01186 304.80944 170.74078 282.93527 151.18718 275.39962 148.38322 279.07982 137.86836 364.91243 101.14919 373.42268 90.74778 393.27993 81.291947 404.39053 80.109964 411.71879 75.382049 415.97392 75.618444 421.17463 71.126925 432.52162 72.781695 440.79547 72.781695 440.79547 79.637172 435.35837 83.41951 432.99441 90.03859 432.99441 92.63894 438.66791 99.73082 440.55908 103.74954 440.08629 108.95025 442.92304 110.36862 444.34141 110.13223 454.03364 116.27852 470.58134 119.58806 473.41809 123.84318 472.9453 145.59159 474.36367 146.77357 474.36367 151.50149 486.65625 160.01174 497.53046 161.43011 502.02198 179.15979 500.84 184.83329 505.56791 194.05273 506.74989 211.54601 499.65802 217.45591 497.29406 223.83859 500.6036 228.56651 499.65802 241.56827 497.53046 241.56827"></polygon>
                <path d="M272.52407,120.04504 C271.86159,123.24862 272.63484,126.66478 272.21359,129.87933 L272.11412,135.42511 L268.78441,137.70333 L279.07982,137.86836 L364.91243,101.14919 L373.42268,90.74778 L386.26312,84.54086 L382.90097,80.609497 L357.64941,82.37124 L350.01522,77.086024 L340.42354,67.885843 L334.15959,64.558118 L326.72115,64.558118 L325.54666,63.187878 L322.80618,62.796381 L321.04444,60.055902 L317.52097,60.447399 L314.78049,62.600632 L311.69142,56.517144 L305.60284,53.214892 L303.44961,57.912857 L300.70913,59.478845 L292.87919,60.066091 L287.20248,66.525792 L282.30877,71.615254 L286.81099,75.334476 L286.02799,86.68789 L283.28751,89.23262 L283.48326,96.08382 L283.65167,96.33275 L279.45728,98.23929 L279.26662,102.05237 L281.36382,105.29349 L281.17316,110.25049 L276.59747,114.06357 L272.52407,120.04504 Z" id="Vitacura" stroke="#000000" stroke-width="0.2" fill="#C0BDBD"></path>
                <polygon id="Lo-Barnechea" stroke="#000000" stroke-width="0.2" fill="#C0BDBD" points="314.78049 62.600632 317.52097 60.447399 321.04444 60.055902 322.80618 62.796381 325.54666 63.187878 326.72115 64.558118 334.15959 64.558118 340.42354 67.885843 350.01522 77.086024 357.64941 82.37124 382.90097 80.609497 386.26312 84.54086 393.27993 81.291947 404.39053 80.109964 411.71879 75.382049 415.97392 75.618444 421.17463 71.126925 432.52162 72.781695 440.79547 72.781695 441.06289 72.965677 446.7642 71.869272 448.07989 74.719927 453.34263 73.842802 453.12335 77.570581 454.8776 80.201955 467.15735 69.457179 467.15735 67.264368 473.07794 63.536589 473.29722 56.958154 492.15539 54.1075 496.32174 51.037564 502.24233 38.977101 459.92107 12.663364 456.85113 12.224802 450.49198 17.706831 442.59786 8.935585 415.407 16.171863 393.69816 8.05846 380.97986 0.602902 357.51678 3.014994 357.51678 5.646368 350.49978 11.566959 346.55272 8.497023 348.52625 5.207806 343.70206 4.330681 342.82494 7.400617 338.00075 6.08493 334.05369 7.839179 333.61513 11.347678 337.12363 16.829706 346.99128 24.504546 343.70206 25.600952 344.35991 29.986574 340.41285 32.398667 337.12363 24.504546 334.49226 24.723827 332.29944 26.916638 325.28245 30.425137 324.84389 36.78429 327.47526 40.073507 318.26545 45.336254 321.11611 49.941158 314.31839 55.861749"></polygon>
                <path d="M167.1861,53.367292 L167.1861,59.546741 L172.54939,74.703882 L179.64701,75.817215 L212.80925,90.37625 L236.16682,101.50301 L272.21359,129.87933 C272.63484,126.66478 271.86159,123.24862 272.52407,120.04504 L276.59747,114.06357 L281.17316,110.25049 L281.36382,105.29349 L281.74513,105.929 L275.6442,99.82807 L272.84794,100.33648 L268.78065,97.03181 L275.8984,97.03181 L276.15261,93.21873 L267.00121,92.20191 L267.50963,90.16827 L273.61055,83.81313 L266.74701,83.05052 L265.98439,85.33836 L262.93393,85.33836 L262.42552,86.60939 L259.62926,86.10098 L258.61244,90.16827 L245.39376,84.57575 L247.1732,70.848655 L243.36012,66.018753 L238.78442,65.764548 L233.44611,69.069218 L229.63303,77.457995 L225.56574,76.949584 L223.5321,81.525277 L216.41435,78.220611 L218.70219,72.628093 L214.1265,72.373887 L217.68537,62.459878 L215.90594,59.663619 L208.78818,59.917824 L208.78818,56.104744 L200.39941,54.071101 L203.44987,43.902886 L199.63679,40.344011 L200.39941,38.310368 L194.29848,35.259903 L193.53586,38.310368 L189.97699,38.310368 L189.21437,37.039341 L187.18073,37.039341 L187.94334,39.581395 L183.62185,43.902886 L179.55457,43.902886 L180.06298,46.44494 L177.01251,49.495404 L173.45364,49.495404 L171.6742,53.56269 L167.1861,53.367292 Z" id="Huechuraba" stroke="#000000" stroke-width="0.2" fill="#C0BDBD"></path>
                <text id="tspan1955" fill="white" font-family="Helvetica" font-size="10" font-weight="normal">
                    <tspan x="138.30383" y="223.33711">Estación</tspan>
                </text>
                <text id="tspan1957" fill="white" font-family="Helvetica" font-size="10" font-weight="normal">
                    <tspan x="141.30383" y="233.33711">Central</tspan>
                </text>
                <text id="tspan1978" fill="white" font-family="Helvetica" font-size="10" font-weight="normal">
                    <tspan x="198.22977" y="208.83617">Santiago</tspan>
                </text>
                <text id="tspan1994" fill="white" font-family="Helvetica" font-size="10" font-weight="normal">
                    <tspan x="72.64567" y="306.55463">Maipú</tspan>
                </text>
                <text id="tspan1998" fill="white" font-family="Helvetica" font-size="10" font-weight="normal">
                    <tspan x="110.42828" y="201.2426">Lo Prado</tspan>
                </text>
                <text id="tspan2002" fill="white" font-family="Helvetica" font-size="10" font-weight="normal">
                    <tspan x="39.794685" y="186.04897">Pudahuel</tspan>
                </text>
                <text id="tspan2006" fill="white" font-family="Helvetica" font-size="10" font-weight="normal">
                    <tspan x="70.62771" y="162.08286">Cerro Navia</tspan>
                </text>
                <text id="tspan2010" fill="white" font-family="Helvetica" font-size="10" font-weight="normal">
                    <tspan x="125.39255" y="279.5213">Cerrillos</tspan>
                </text>
                <text id="tspan2020" fill="white" font-family="Helvetica" font-size="10" font-weight="normal">
                    <tspan x="145.33199" y="167.27696">Quinta</tspan>
                </text>
                <text id="tspan2022" fill="white" font-family="Helvetica" font-size="10" font-weight="normal">
                    <tspan x="143.83199" y="177.27696">Normal</tspan>
                </text>
                <text id="tspan2026" fill="white" font-family="Helvetica" font-size="10" font-weight="normal">
                    <tspan x="111.12349" y="132.99997">Renca</tspan>
                </text>
                <text id="tspan2030" fill="white" font-family="Helvetica" font-size="10" font-weight="normal">
                    <tspan x="107.08098" y="65.898308">Quilicura</tspan>
                </text>
                <text id="tspan2034" fill="white" font-family="Helvetica" font-size="10" font-weight="normal">
                    <tspan x="171.29944" y="105.258">Conchalí</tspan>
                </text>
                <text id="tspan2038" fill="white" font-family="Helvetica" font-size="10" font-weight="normal">
                    <tspan x="184.19302" y="147.72505">Indepen</tspan>
                </text>
                <text id="tspan2040" fill="white" font-family="Helvetica" font-size="10" font-weight="normal">
                    <tspan x="187.69302" y="155.72505">dencia</tspan>
                </text>
                <text id="tspan2044" fill="white" font-family="Helvetica" font-size="10" font-weight="normal">
                    <tspan x="221.45963" y="137.44829">Recoleta</tspan>
                </text>
                <text id="tspan2048" fill="white" font-family="Helvetica" font-size="10" font-weight="normal">
                    <tspan x="196.90947" y="85.92411">Huechuraba</tspan>
                </text>
                <text id="tspan2052" fill="white" font-family="Helvetica" font-size="10" font-weight="normal">
                    <tspan x="305.30453" y="98.73499">Vitacura</tspan>
                </text>
                <text id="tspan2056" fill="white" font-family="Helvetica" font-size="10" font-weight="normal">
                    <tspan x="365.24106" y="145.65347">Las Condes</tspan>
                </text>
                <text id="tspan2060" fill="white" font-family="Helvetica" font-size="10" font-weight="normal">
                    <tspan x="376.72421" y="45.926373">Lo Barnechea</tspan>
                </text>
                <text id="tspan2064" fill="white" font-family="Helvetica" font-size="10" font-weight="normal">
                    <tspan x="346.09741" y="197.10437">La Reina</tspan>
                </text>
                <text id="tspan2068" fill="white" font-family="Helvetica" font-size="10" font-weight="normal">
                    <tspan x="247.15884" y="172.38852">Providencia</tspan>
                </text>
                <text id="tspan2072" fill="white" font-family="Helvetica" font-size="10" font-weight="normal">
                    <tspan x="270.55557" y="215.05086">Ñuñoa</tspan>
                </text>
                <text id="tspan2076" fill="white" font-family="Helvetica" font-size="10" font-weight="normal">
                    <tspan x="349.38052" y="255.1893">Peñalolén</tspan>
                </text>
                <text id="tspan2080" fill="white" font-family="Helvetica" font-size="10" font-weight="normal">
                    <tspan x="273.35461" y="261.57562">Macul</tspan>
                </text>
                <text id="tspan2084" fill="white" font-family="Helvetica" font-size="10" font-weight="normal">
                    <tspan x="293.88547" y="330.80139">La Florida</tspan>
                </text>
                <text id="tspan2088" fill="white" font-family="Helvetica" font-size="10" font-weight="normal">
                    <tspan x="302.82913" y="423.76831">Puente Alto</tspan>
                </text>
                <text id="tspan2102" fill="white" font-family="Helvetica" font-size="10" font-weight="normal">
                    <tspan x="218.9454" y="407.77777">La Pintana</tspan>
                </text>
                <text id="tspan2106" fill="white" font-family="Helvetica" font-size="10" font-weight="normal">
                    <tspan x="135.36911" y="425.31451">San Bernardo</tspan>
                </text>
                <text id="tspan2110" fill="white" font-family="Helvetica" font-size="10" font-weight="normal">
                    <tspan x="171.19209" y="372.34653">El Bosque</tspan>
                </text>
                <text id="tspan2114" fill="white" font-family="Helvetica" font-size="10" font-weight="normal">
                    <tspan x="153.04802" y="308.27118">Lo Espejo</tspan>
                </text>
                <text id="tspan2118" fill="white" font-family="Helvetica" font-size="10" font-weight="normal">
                    <tspan x="177.44653" y="256.41055">Pedro</tspan>
                </text>
                <text id="tspan2120" fill="white" font-family="Helvetica" font-size="10" font-weight="normal">
                    <tspan x="174.44653" y="266.41055">Aguirre</tspan>
                </text>
                <text id="tspan2122" fill="white" font-family="Helvetica" font-size="10" font-weight="normal">
                    <tspan x="176.94653" y="276.41055">Cerda</tspan>
                </text>
                <text id="tspan2126" fill="white" font-family="Helvetica" font-size="10" font-weight="normal">
                    <tspan x="210.95775" y="268.64233">San</tspan>
                </text>
                <text id="tspan2128" fill="white" font-family="Helvetica" font-size="10" font-weight="normal">
                    <tspan x="204.95775" y="278.64233">Miguel</tspan>
                </text>
                <text id="tspan2132" fill="white" font-family="Helvetica" font-size="10" font-weight="normal">
                    <tspan x="200.8786" y="317.58875">La</tspan>
                </text>
                <text id="tspan2134" fill="white" font-family="Helvetica" font-size="10" font-weight="normal">
                    <tspan x="187.8786" y="327.58875">Cisterna</tspan>
                </text>
                <text id="tspan2140" fill="white" font-family="Helvetica" font-size="10" font-weight="normal">
                    <tspan x="225.80226" y="338.09415">San</tspan>
                </text>
                <text id="tspan2144" fill="white" font-family="Helvetica" font-size="10" font-weight="normal">
                    <tspan x="218.30226" y="348.09415">Ramón</tspan>
                </text>
                <text id="tspan2148" fill="white" font-family="Helvetica" font-size="10" font-weight="normal">
                    <tspan x="245.30002" y="263.9585">San</tspan>
                </text>
                <text id="tspan2150" fill="white" font-family="Helvetica" font-size="10" font-weight="normal">
                    <tspan x="236.30002" y="273.9585">Joaquín</tspan>
                </text>
                <text id="tspan2154" fill="white" font-family="Helvetica" font-size="10" font-weight="normal">
                    <tspan x="255.41281" y="321.26773">La</tspan>
                </text>
                <text id="tspan2156" fill="white" font-family="Helvetica" font-size="10" font-weight="normal">
                    <tspan x="244.78" y="331.26773">Granja</tspan>
                </text>
            </g>
        </g>
    </g>
</svg>